<mxfile host="65bd71144e">
    <diagram id="IhuEdChh2bfhF5IRZKHu" name="Page-1">
        <mxGraphModel dx="499" dy="610" grid="1" gridSize="10" guides="1" tooltips="1" connect="1" arrows="1" fold="1" page="1" pageScale="1" pageWidth="850" pageHeight="1100" math="0" shadow="0">
            <root>
                <mxCell id="0"/>
                <mxCell id="1" parent="0"/>
                <mxCell id="2" value="actor" style="shape=umlLifeline;perimeter=lifelinePerimeter;container=1;collapsible=0;recursiveResize=0;rounded=0;shadow=0;strokeWidth=2;fillColor=#d5e8d4;strokeColor=#82b366;" parent="1" vertex="1">
                    <mxGeometry x="26" y="310" width="100" height="570" as="geometry"/>
                </mxCell>
                <mxCell id="3" value="" style="points=[];perimeter=orthogonalPerimeter;rounded=0;shadow=0;strokeWidth=1;" parent="2" vertex="1">
                    <mxGeometry x="45" y="70" width="10" height="40" as="geometry"/>
                </mxCell>
                <mxCell id="33" value="" style="points=[];perimeter=orthogonalPerimeter;rounded=0;shadow=0;strokeWidth=1;" parent="2" vertex="1">
                    <mxGeometry x="45" y="240" width="10" height="30" as="geometry"/>
                </mxCell>
                <mxCell id="6" value="browse" style="shape=umlLifeline;perimeter=lifelinePerimeter;container=1;collapsible=0;recursiveResize=0;rounded=0;shadow=0;strokeWidth=2;fillColor=#d5e8d4;strokeColor=#82b366;" parent="1" vertex="1">
                    <mxGeometry x="206" y="310" width="100" height="805" as="geometry"/>
                </mxCell>
                <mxCell id="7" value="" style="points=[];perimeter=orthogonalPerimeter;rounded=0;shadow=0;strokeWidth=1;" parent="6" vertex="1">
                    <mxGeometry x="45" y="80" width="10" height="20" as="geometry"/>
                </mxCell>
                <mxCell id="19" value="" style="points=[];perimeter=orthogonalPerimeter;rounded=0;shadow=0;strokeWidth=1;" parent="6" vertex="1">
                    <mxGeometry x="45" y="130" width="10" height="30" as="geometry"/>
                </mxCell>
                <mxCell id="30" value="" style="points=[];perimeter=orthogonalPerimeter;rounded=0;shadow=0;strokeWidth=1;" parent="6" vertex="1">
                    <mxGeometry x="45" y="175" width="10" height="30" as="geometry"/>
                </mxCell>
                <mxCell id="35" value="" style="points=[];perimeter=orthogonalPerimeter;rounded=0;shadow=0;strokeWidth=1;" parent="6" vertex="1">
                    <mxGeometry x="45" y="240" width="10" height="30" as="geometry"/>
                </mxCell>
                <mxCell id="65" value="" style="points=[];perimeter=orthogonalPerimeter;rounded=0;shadow=0;strokeWidth=1;" parent="6" vertex="1">
                    <mxGeometry x="45" y="645" width="10" height="30" as="geometry"/>
                </mxCell>
                <mxCell id="9" value="1. 点击微博社交登录按钮" style="verticalAlign=bottom;endArrow=block;entryX=0;entryY=0;shadow=0;strokeWidth=1;" parent="1" edge="1">
                    <mxGeometry relative="1" as="geometry">
                        <mxPoint x="81" y="391" as="sourcePoint"/>
                        <mxPoint x="251" y="391" as="targetPoint"/>
                    </mxGeometry>
                </mxCell>
                <mxCell id="17" value="&lt;div style=&quot;font-family: &amp;#34;droid sans mono&amp;#34; , monospace , monospace , &amp;#34;droid sans fallback&amp;#34; ; line-height: 22px&quot;&gt;&lt;br&gt;&lt;/div&gt;" style="edgeLabel;html=1;align=center;verticalAlign=middle;resizable=0;points=[];" parent="9" vertex="1" connectable="0">
                    <mxGeometry x="-0.6353" y="-3" relative="1" as="geometry">
                        <mxPoint x="274" y="6" as="offset"/>
                    </mxGeometry>
                </mxCell>
                <mxCell id="18" value="&lt;div style=&quot;font-family: &amp;#34;droid sans mono&amp;#34; , monospace , monospace , &amp;#34;droid sans fallback&amp;#34; ; line-height: 22px&quot;&gt;&lt;font style=&quot;font-size: 10px&quot; color=&quot;#ff0000&quot;&gt;https://api.weibo.com/oauth2/authorize?client_id=YOUR_CLIENT_ID&amp;amp;response_type=code&amp;amp;redirect_uri=YOUR_REGISTERED_REDIRECT_URI&lt;/font&gt;&lt;/div&gt;" style="edgeLabel;html=1;align=center;verticalAlign=middle;resizable=0;points=[];" parent="9" vertex="1" connectable="0">
                    <mxGeometry x="-0.7882" y="-2" relative="1" as="geometry">
                        <mxPoint x="367" y="17" as="offset"/>
                    </mxGeometry>
                </mxCell>
                <mxCell id="12" value="client" style="shape=umlLifeline;perimeter=lifelinePerimeter;container=1;collapsible=0;recursiveResize=0;rounded=0;shadow=0;strokeWidth=2;fillColor=#d5e8d4;strokeColor=#82b366;" parent="1" vertex="1">
                    <mxGeometry x="366" y="310" width="100" height="790" as="geometry"/>
                </mxCell>
                <mxCell id="44" value="" style="points=[];perimeter=orthogonalPerimeter;rounded=0;shadow=0;strokeWidth=1;" parent="12" vertex="1">
                    <mxGeometry x="45" y="385" width="10" height="30" as="geometry"/>
                </mxCell>
                <mxCell id="49" value="" style="points=[];perimeter=orthogonalPerimeter;rounded=0;shadow=0;strokeWidth=1;" parent="12" vertex="1">
                    <mxGeometry x="45" y="440" width="10" height="30" as="geometry"/>
                </mxCell>
                <mxCell id="52" value="" style="points=[];perimeter=orthogonalPerimeter;rounded=0;shadow=0;strokeWidth=1;" parent="12" vertex="1">
                    <mxGeometry x="45" y="490" width="10" height="30" as="geometry"/>
                </mxCell>
                <mxCell id="57" value="" style="points=[];perimeter=orthogonalPerimeter;rounded=0;shadow=0;strokeWidth=1;" parent="12" vertex="1">
                    <mxGeometry x="45" y="550" width="10" height="30" as="geometry"/>
                </mxCell>
                <mxCell id="60" value="" style="points=[];perimeter=orthogonalPerimeter;rounded=0;shadow=0;strokeWidth=1;" parent="12" vertex="1">
                    <mxGeometry x="45" y="640" width="10" height="50" as="geometry"/>
                </mxCell>
                <mxCell id="63" style="edgeStyle=orthogonalEdgeStyle;rounded=0;orthogonalLoop=1;jettySize=auto;html=1;entryX=1.2;entryY=1.02;entryDx=0;entryDy=0;entryPerimeter=0;" parent="12" source="60" target="60" edge="1">
                    <mxGeometry relative="1" as="geometry"/>
                </mxCell>
                <mxCell id="64" value="&lt;font color=&quot;#ff0000&quot;&gt;11. 判断是否时第一次登录, 是则注册一个账户与其绑定: UID&lt;/font&gt;" style="edgeLabel;html=1;align=center;verticalAlign=middle;resizable=0;points=[];" parent="63" vertex="1" connectable="0">
                    <mxGeometry x="-0.0814" y="3" relative="1" as="geometry">
                        <mxPoint x="127" y="11" as="offset"/>
                    </mxGeometry>
                </mxCell>
                <mxCell id="14" value="weibo-server" style="shape=umlLifeline;perimeter=lifelinePerimeter;container=1;collapsible=0;recursiveResize=0;rounded=0;shadow=0;strokeWidth=2;fillColor=#d5e8d4;strokeColor=#82b366;perimeterSpacing=0;" parent="1" vertex="1">
                    <mxGeometry x="526" y="310" width="100" height="680" as="geometry"/>
                </mxCell>
                <mxCell id="15" value="" style="points=[];perimeter=orthogonalPerimeter;rounded=0;shadow=0;strokeWidth=1;" parent="14" vertex="1">
                    <mxGeometry x="45" y="135" width="10" height="20" as="geometry"/>
                </mxCell>
                <mxCell id="28" value="" style="points=[];perimeter=orthogonalPerimeter;rounded=0;shadow=0;strokeWidth=1;" parent="14" vertex="1">
                    <mxGeometry x="45" y="180" width="10" height="20" as="geometry"/>
                </mxCell>
                <mxCell id="37" value="" style="points=[];perimeter=orthogonalPerimeter;rounded=0;shadow=0;strokeWidth=1;" parent="14" vertex="1">
                    <mxGeometry x="45" y="240" width="10" height="30" as="geometry"/>
                </mxCell>
                <mxCell id="45" value="" style="points=[];perimeter=orthogonalPerimeter;rounded=0;shadow=0;strokeWidth=1;" parent="14" vertex="1">
                    <mxGeometry x="45" y="385" width="10" height="30" as="geometry"/>
                </mxCell>
                <mxCell id="48" value="" style="points=[];perimeter=orthogonalPerimeter;rounded=0;shadow=0;strokeWidth=1;" parent="14" vertex="1">
                    <mxGeometry x="45" y="440" width="10" height="30" as="geometry"/>
                </mxCell>
                <mxCell id="53" value="" style="points=[];perimeter=orthogonalPerimeter;rounded=0;shadow=0;strokeWidth=1;" parent="14" vertex="1">
                    <mxGeometry x="45" y="490" width="10" height="30" as="geometry"/>
                </mxCell>
                <mxCell id="56" value="" style="points=[];perimeter=orthogonalPerimeter;rounded=0;shadow=0;strokeWidth=1;" parent="14" vertex="1">
                    <mxGeometry x="45" y="550" width="10" height="30" as="geometry"/>
                </mxCell>
                <mxCell id="26" style="edgeStyle=orthogonalEdgeStyle;rounded=0;orthogonalLoop=1;jettySize=auto;html=1;" parent="1" source="19" target="15" edge="1">
                    <mxGeometry relative="1" as="geometry"/>
                </mxCell>
                <mxCell id="27" value="2. 跳转到微博授权页面" style="edgeLabel;html=1;align=center;verticalAlign=middle;resizable=0;points=[];" parent="26" vertex="1" connectable="0">
                    <mxGeometry x="-0.4258" y="-3" relative="1" as="geometry">
                        <mxPoint x="16" y="-3" as="offset"/>
                    </mxGeometry>
                </mxCell>
                <mxCell id="31" style="edgeStyle=orthogonalEdgeStyle;rounded=0;orthogonalLoop=1;jettySize=auto;html=1;" parent="1" source="28" target="30" edge="1">
                    <mxGeometry relative="1" as="geometry"/>
                </mxCell>
                <mxCell id="32" value="3. 返回微博的授权页: login" style="edgeLabel;html=1;align=center;verticalAlign=middle;resizable=0;points=[];" parent="31" vertex="1" connectable="0">
                    <mxGeometry x="0.6516" y="3" relative="1" as="geometry">
                        <mxPoint x="61" y="-3" as="offset"/>
                    </mxGeometry>
                </mxCell>
                <mxCell id="34" style="edgeStyle=orthogonalEdgeStyle;rounded=0;orthogonalLoop=1;jettySize=auto;html=1;" parent="1" source="33" target="6" edge="1">
                    <mxGeometry relative="1" as="geometry">
                        <Array as="points">
                            <mxPoint x="226" y="565"/>
                            <mxPoint x="226" y="565"/>
                        </Array>
                    </mxGeometry>
                </mxCell>
                <mxCell id="36" value="4. 授权: 登录" style="edgeLabel;html=1;align=center;verticalAlign=middle;resizable=0;points=[];" parent="34" vertex="1" connectable="0">
                    <mxGeometry x="-0.7011" y="2" relative="1" as="geometry">
                        <mxPoint x="39" y="2" as="offset"/>
                    </mxGeometry>
                </mxCell>
                <mxCell id="13" value="" style="points=[];perimeter=orthogonalPerimeter;rounded=0;shadow=0;strokeWidth=1;" parent="1" vertex="1">
                    <mxGeometry x="411" y="610" width="10" height="30" as="geometry"/>
                </mxCell>
                <mxCell id="38" style="edgeStyle=orthogonalEdgeStyle;rounded=0;orthogonalLoop=1;jettySize=auto;html=1;" parent="1" source="35" target="37" edge="1">
                    <mxGeometry relative="1" as="geometry"/>
                </mxCell>
                <mxCell id="39" value="5. 微博认证: 登录合法" style="edgeLabel;html=1;align=center;verticalAlign=middle;resizable=0;points=[];" parent="38" vertex="1" connectable="0">
                    <mxGeometry x="-0.4" y="4" relative="1" as="geometry">
                        <mxPoint x="12" y="4" as="offset"/>
                    </mxGeometry>
                </mxCell>
                <mxCell id="41" style="edgeStyle=orthogonalEdgeStyle;rounded=0;orthogonalLoop=1;jettySize=auto;html=1;" parent="1" source="40" target="13" edge="1">
                    <mxGeometry relative="1" as="geometry"/>
                </mxCell>
                <mxCell id="42" value="6. 跳转第一步的 redirct_uri&lt;br&gt;带有 &lt;b&gt;&lt;i&gt;&lt;font color=&quot;#ff59f4&quot;&gt;code: once&lt;/font&gt;&lt;/i&gt;&lt;/b&gt;" style="edgeLabel;html=1;align=center;verticalAlign=middle;resizable=0;points=[];" parent="41" vertex="1" connectable="0">
                    <mxGeometry x="0.3467" y="5" relative="1" as="geometry">
                        <mxPoint x="26" y="-5" as="offset"/>
                    </mxGeometry>
                </mxCell>
                <mxCell id="40" value="" style="points=[];perimeter=orthogonalPerimeter;rounded=0;shadow=0;strokeWidth=1;" parent="1" vertex="1">
                    <mxGeometry x="571" y="610" width="10" height="30" as="geometry"/>
                </mxCell>
                <mxCell id="46" style="edgeStyle=orthogonalEdgeStyle;rounded=0;orthogonalLoop=1;jettySize=auto;html=1;" parent="1" source="44" target="45" edge="1">
                    <mxGeometry relative="1" as="geometry"/>
                </mxCell>
                <mxCell id="47" value="7. 在 client 代码中使用 code 取 token" style="edgeLabel;html=1;align=center;verticalAlign=middle;resizable=0;points=[];" parent="46" vertex="1" connectable="0">
                    <mxGeometry x="-0.6533" y="-1" relative="1" as="geometry">
                        <mxPoint x="89" y="-16" as="offset"/>
                    </mxGeometry>
                </mxCell>
                <mxCell id="50" style="edgeStyle=orthogonalEdgeStyle;rounded=0;orthogonalLoop=1;jettySize=auto;html=1;" parent="1" source="48" target="49" edge="1">
                    <mxGeometry relative="1" as="geometry"/>
                </mxCell>
                <mxCell id="51" value="8. 返回 access_token" style="edgeLabel;html=1;align=center;verticalAlign=middle;resizable=0;points=[];" parent="50" vertex="1" connectable="0">
                    <mxGeometry x="0.72" y="-2" relative="1" as="geometry">
                        <mxPoint x="54" y="2" as="offset"/>
                    </mxGeometry>
                </mxCell>
                <mxCell id="54" style="edgeStyle=orthogonalEdgeStyle;rounded=0;orthogonalLoop=1;jettySize=auto;html=1;" parent="1" source="52" target="53" edge="1">
                    <mxGeometry relative="1" as="geometry"/>
                </mxCell>
                <mxCell id="55" value="9. 使用 access_toekn 换取用户信息" style="edgeLabel;html=1;align=center;verticalAlign=middle;resizable=0;points=[];" parent="54" vertex="1" connectable="0">
                    <mxGeometry x="-0.68" y="2" relative="1" as="geometry">
                        <mxPoint x="81" y="-13" as="offset"/>
                    </mxGeometry>
                </mxCell>
                <mxCell id="58" style="edgeStyle=orthogonalEdgeStyle;rounded=0;orthogonalLoop=1;jettySize=auto;html=1;" parent="1" source="56" target="57" edge="1">
                    <mxGeometry relative="1" as="geometry"/>
                </mxCell>
                <mxCell id="59" value="10. 返回用户信息" style="edgeLabel;html=1;align=center;verticalAlign=middle;resizable=0;points=[];" parent="58" vertex="1" connectable="0">
                    <mxGeometry x="0.64" y="2" relative="1" as="geometry">
                        <mxPoint x="38" y="-2" as="offset"/>
                    </mxGeometry>
                </mxCell>
                <mxCell id="66" style="edgeStyle=orthogonalEdgeStyle;rounded=0;orthogonalLoop=1;jettySize=auto;html=1;entryX=0.9;entryY=0.667;entryDx=0;entryDy=0;entryPerimeter=0;" parent="1" source="60" target="65" edge="1">
                    <mxGeometry relative="1" as="geometry"/>
                </mxCell>
                <mxCell id="67" value="&lt;font color=&quot;#00ff00&quot;&gt;12. 返回用户信息并回到 red_uri 页面&lt;/font&gt;" style="edgeLabel;html=1;align=center;verticalAlign=middle;resizable=0;points=[];" parent="66" vertex="1" connectable="0">
                    <mxGeometry x="0.6821" y="-2" relative="1" as="geometry">
                        <mxPoint x="76" y="-18.01" as="offset"/>
                    </mxGeometry>
                </mxCell>
                <mxCell id="68" style="edgeStyle=orthogonalEdgeStyle;rounded=0;orthogonalLoop=1;jettySize=auto;html=1;strokeColor=#000000;" edge="1" parent="1" source="72" target="75">
                    <mxGeometry relative="1" as="geometry">
                        <Array as="points">
                            <mxPoint x="317" y="1240"/>
                            <mxPoint x="317" y="1240"/>
                        </Array>
                    </mxGeometry>
                </mxCell>
                <mxCell id="69" value="&lt;b&gt;&lt;font style=&quot;font-size: 13px&quot;&gt;1. 向用户申请请求认证&lt;/font&gt;&lt;/b&gt;" style="edgeLabel;html=1;align=center;verticalAlign=middle;resizable=0;points=[];" vertex="1" connectable="0" parent="68">
                    <mxGeometry x="-0.6377" y="-1" relative="1" as="geometry">
                        <mxPoint x="82" y="-1" as="offset"/>
                    </mxGeometry>
                </mxCell>
                <mxCell id="70" style="edgeStyle=orthogonalEdgeStyle;rounded=0;orthogonalLoop=1;jettySize=auto;html=1;exitX=1;exitY=0.75;exitDx=0;exitDy=0;strokeColor=#000000;" edge="1" parent="1" source="72" target="83">
                    <mxGeometry relative="1" as="geometry">
                        <Array as="points">
                            <mxPoint x="257" y="1430"/>
                        </Array>
                    </mxGeometry>
                </mxCell>
                <mxCell id="71" value="&lt;b&gt;&lt;font style=&quot;font-size: 13px&quot;&gt;5. 使用访问令牌获取受保护信息&lt;/font&gt;&lt;/b&gt;" style="edgeLabel;html=1;align=center;verticalAlign=middle;resizable=0;points=[];" vertex="1" connectable="0" parent="70">
                    <mxGeometry x="-0.3492" y="1" relative="1" as="geometry">
                        <mxPoint x="84" y="1" as="offset"/>
                    </mxGeometry>
                </mxCell>
                <mxCell id="72" value="&lt;b&gt;&lt;font style=&quot;font-size: 14px&quot;&gt;client&lt;/font&gt;&lt;/b&gt;" style="rounded=1;whiteSpace=wrap;html=1;" vertex="1" parent="1">
                    <mxGeometry x="177" y="1220" width="80" height="240" as="geometry"/>
                </mxCell>
                <mxCell id="73" value="" style="edgeStyle=orthogonalEdgeStyle;rounded=1;orthogonalLoop=1;jettySize=auto;html=1;entryX=0.5;entryY=0;entryDx=0;entryDy=0;strokeColor=#000000;" edge="1" parent="1" source="75" target="80">
                    <mxGeometry x="1" y="143" relative="1" as="geometry">
                        <mxPoint x="-83" y="130" as="offset"/>
                    </mxGeometry>
                </mxCell>
                <mxCell id="74" value="&lt;b&gt;&lt;font style=&quot;font-size: 13px&quot;&gt;3. 使用授权进行认证&lt;/font&gt;&lt;/b&gt;" style="edgeLabel;html=1;align=center;verticalAlign=middle;resizable=0;points=[];" vertex="1" connectable="0" parent="73">
                    <mxGeometry x="-0.28" y="3" relative="1" as="geometry">
                        <mxPoint y="5" as="offset"/>
                    </mxGeometry>
                </mxCell>
                <mxCell id="75" value="resource owner" style="rounded=1;whiteSpace=wrap;html=1;" vertex="1" parent="1">
                    <mxGeometry x="522" y="1220" width="130" height="40" as="geometry"/>
                </mxCell>
                <mxCell id="76" style="edgeStyle=orthogonalEdgeStyle;rounded=1;orthogonalLoop=1;jettySize=auto;html=1;entryX=1;entryY=0.5;entryDx=0;entryDy=0;strokeColor=#000000;" edge="1" parent="1" source="75" target="75">
                    <mxGeometry relative="1" as="geometry"/>
                </mxCell>
                <mxCell id="77" value="&lt;b&gt;&lt;font style=&quot;font-size: 13px&quot;&gt;2. 用户授权: 登录&lt;/font&gt;&lt;/b&gt;" style="edgeLabel;html=1;align=center;verticalAlign=middle;resizable=0;points=[];" vertex="1" connectable="0" parent="76">
                    <mxGeometry x="-0.5394" y="-2" relative="1" as="geometry">
                        <mxPoint x="82" as="offset"/>
                    </mxGeometry>
                </mxCell>
                <mxCell id="78" style="edgeStyle=orthogonalEdgeStyle;rounded=1;orthogonalLoop=1;jettySize=auto;html=1;entryX=1;entryY=0.5;entryDx=0;entryDy=0;strokeColor=#000000;" edge="1" parent="1" source="80" target="72">
                    <mxGeometry relative="1" as="geometry"/>
                </mxCell>
                <mxCell id="79" value="&lt;b&gt;&lt;font style=&quot;font-size: 13px&quot;&gt;4. 认证通过, 返回访问令牌&lt;/font&gt;&lt;/b&gt;" style="edgeLabel;html=1;align=center;verticalAlign=middle;resizable=0;points=[];" vertex="1" connectable="0" parent="78">
                    <mxGeometry x="0.7744" y="-1" relative="1" as="geometry">
                        <mxPoint x="107" y="1" as="offset"/>
                    </mxGeometry>
                </mxCell>
                <mxCell id="80" value="Authorization Server: QQ 服务器" style="rounded=1;whiteSpace=wrap;html=1;" vertex="1" parent="1">
                    <mxGeometry x="522" y="1319" width="130" height="40" as="geometry"/>
                </mxCell>
                <mxCell id="81" style="edgeStyle=orthogonalEdgeStyle;rounded=0;orthogonalLoop=1;jettySize=auto;html=1;exitX=0;exitY=0.75;exitDx=0;exitDy=0;strokeColor=#000000;" edge="1" parent="1" source="83">
                    <mxGeometry relative="1" as="geometry">
                        <mxPoint x="257" y="1451" as="targetPoint"/>
                        <Array as="points">
                            <mxPoint x="390" y="1450"/>
                            <mxPoint x="390" y="1451"/>
                        </Array>
                    </mxGeometry>
                </mxCell>
                <mxCell id="82" value="&lt;b&gt;&lt;font style=&quot;font-size: 13px&quot;&gt;6. 返回受保护信息&lt;/font&gt;&lt;/b&gt;" style="edgeLabel;html=1;align=center;verticalAlign=middle;resizable=0;points=[];" vertex="1" connectable="0" parent="81">
                    <mxGeometry x="0.4211" y="1" relative="1" as="geometry">
                        <mxPoint x="43" as="offset"/>
                    </mxGeometry>
                </mxCell>
                <mxCell id="83" value="Authorization Server: QQ 服务器" style="rounded=1;whiteSpace=wrap;html=1;" vertex="1" parent="1">
                    <mxGeometry x="522" y="1420" width="130" height="40" as="geometry"/>
                </mxCell>
            </root>
        </mxGraphModel>
    </diagram>
</mxfile>
